<svg xmlns="http://www.w3.org/2000/svg" viewBox="0 0 640 420" role="img" aria-label="Cold chain delivery van">
  <defs>
    <linearGradient id="vBody" x1="0" y1="0" x2="1" y2="1">
      <stop offset="0" stop-color="#FFFFFF"/>
      <stop offset="1" stop-color="#D9E2E6"/>
    </linearGradient>
    <linearGradient id="vAcc" x1="0" y1="0" x2="1" y2="0">
      <stop offset="0" stop-color="#E23E2E"/>
      <stop offset=".5" stop-color="#FF8A3D"/>
      <stop offset="1" stop-color="#FFC53D"/>
    </linearGradient>
    <linearGradient id="eg3" x1=".3" y1="0" x2=".7" y2="1">
      <stop offset="0" stop-color="#FFFDF7"/>
      <stop offset="1" stop-color="#EADCC2"/>
    </linearGradient>
  </defs>
  <ellipse cx="320" cy="366" rx="270" ry="22" fill="#0F3A2E" opacity=".16"/>
  <g transform="translate(60 96)">
    <path d="M0 60h330a46 46 0 0 1 46 46v90H0z" fill="url(#vBody)"/>
    <path d="M330 60l76 30c14 6 24 20 24 36v70H376z" fill="#F1F5F7"/>
    <path d="M352 84l48 20c10 4 18 14 18 26v42h-66z" fill="#9FD3E8" opacity=".9"/>
    <rect x="376" y="84" width="46" height="90" rx="4" fill="none" stroke="#0F3A2E" stroke-width="3" opacity=".35"/>
    <rect x="0" y="150" width="480" height="14" fill="url(#vAcc)"/>
    <rect x="40" y="94" width="180" height="52" rx="8" fill="#0F3A2E" opacity=".08"/>
    <g transform="translate(58 98)">
      <rect x="0" y="10" width="150" height="34" rx="8" fill="#FFC53D"/>
      <g fill="url(#eg3)" stroke="#D3C1A0" stroke-width="1.2">
        <ellipse cx="20" cy="0" rx="11" ry="14"/><ellipse cx="46" cy="-4" rx="11" ry="14"/>
        <ellipse cx="72" cy="0" rx="11" ry="14"/><ellipse cx="98" cy="-4" rx="11" ry="14"/>
        <ellipse cx="124" cy="0" rx="11" ry="14"/><ellipse cx="33" cy="-22" rx="10" ry="13"/>
        <ellipse cx="59" cy="-26" rx="10" ry="13"/><ellipse cx="85" cy="-22" rx="10" ry="13"/>
        <ellipse cx="111" cy="-26" rx="10" ry="13"/>
      </g>
    </g>
    <circle cx="120" cy="212" r="46" fill="#22333A"/>
    <circle cx="120" cy="212" r="20" fill="#8C9AA2"/>
    <circle cx="398" cy="212" r="46" fill="#22333A"/>
    <circle cx="398" cy="212" r="20" fill="#8C9AA2"/>
    <rect x="14" y="196" width="16" height="26" rx="6" fill="#FFC53D"/>
    <rect x="450" y="186" width="18" height="36" rx="6" fill="#E23E2E"/>
  </g>
</svg>
